<?xml version="1.0" encoding="UTF-8"?>
<!DOCTYPE svg PUBLIC "-//W3C//DTD SVG 1.1//EN" "http://www.w3.org/Graphics/SVG/1.1/DTD/svg11.dtd">
<svg xmlns="http://www.w3.org/2000/svg" version="1.1" width="596px" height="596px" style="shape-rendering:geometricPrecision; text-rendering:geometricPrecision; image-rendering:optimizeQuality; fill-rule:evenodd; clip-rule:evenodd" xmlns:xlink="http://www.w3.org/1999/xlink">
<g><path style="opacity:1" fill="#fefefe" d="M -0.5,-0.5 C 198.167,-0.5 396.833,-0.5 595.5,-0.5C 595.5,198.167 595.5,396.833 595.5,595.5C 396.833,595.5 198.167,595.5 -0.5,595.5C -0.5,396.833 -0.5,198.167 -0.5,-0.5 Z M 283.5,111.5 C 361.996,109.322 421.829,141.322 463,207.5C 474.035,227.406 481.535,248.573 485.5,271C 483.063,281.146 479.729,290.979 475.5,300.5C 448.215,314.709 435.049,337.376 436,368.5C 436.689,369.357 437.522,370.023 438.5,370.5C 470.19,359.793 484.19,337.793 480.5,304.5C 483.157,299.029 485.324,293.362 487,287.5C 489.832,363.008 459.999,421.508 397.5,463C 338.031,497.262 277.031,500.262 214.5,472C 178.491,453.658 150.657,426.824 131,391.5C 129.45,380.217 129.117,368.883 130,357.5C 136.596,348.9 143.93,340.9 152,333.5C 161.291,337.771 167.125,334.938 169.5,325C 167.224,314.574 161.224,311.574 151.5,316C 148.064,319.757 146.564,324.257 147,329.5C 142,334.5 137,339.5 132,344.5C 133.082,340.977 133.415,337.31 133,333.5C 131.416,332.139 129.582,331.472 127.5,331.5C 125.822,319.994 126.655,308.661 130,297.5C 133.662,295.841 137.496,294.341 141.5,293C 149.677,284.701 149.344,276.701 140.5,269C 125.865,264.976 119.032,270.476 120,285.5C 121.364,288.395 122.864,291.228 124.5,294C 120.272,307.847 119.606,321.847 122.5,336C 120.062,344.665 118.562,353.498 118,362.5C 96.5445,290.005 110.878,225.672 161,169.5C 194.983,135.759 235.816,116.426 283.5,111.5 Z"/></g>
<g><path style="opacity:1" fill="#a5d7be" d="M 247.5,36.5 C 260.118,34.6274 266.285,39.9607 266,52.5C 265.07,54.9361 263.903,57.2695 262.5,59.5C 265.669,66.8424 267.502,74.5091 268,82.5C 271.986,74.8765 274.986,66.8765 277,58.5C 281.507,55.3006 284.674,56.3006 286.5,61.5C 285.053,68.3426 282.72,74.8426 279.5,81C 282.716,80.1027 286.049,79.2693 289.5,78.5C 291.316,68.2585 296.982,65.4252 306.5,70C 311.101,74.7709 311.601,79.9376 308,85.5C 304.057,89.5178 299.557,90.3511 294.5,88C 292.946,86.108 291.112,84.608 289,83.5C 284.657,84.9211 280.491,86.7544 276.5,89C 273.074,93.8482 269.408,98.5149 265.5,103C 276.236,101.945 287.069,101.112 298,100.5C 310.549,101.338 323.049,102.672 335.5,104.5C 341.594,102.288 347.594,99.7881 353.5,97C 370.536,74.212 392.536,67.5453 419.5,77C 421.813,77.6409 423.48,78.9743 424.5,81C 416.828,95.6728 405.161,105.673 389.5,111C 376.625,113.207 365.292,110.04 355.5,101.5C 352.048,102.726 348.715,104.226 345.5,106C 389.228,118.2 425.895,141.533 455.5,176C 460.906,179.732 466.573,183.065 472.5,186C 474.167,186.667 475.833,186.667 477.5,186C 486.07,180.422 495.403,176.922 505.5,175.5C 507.426,165.081 513.426,161.581 523.5,165C 532.13,173.59 531.13,180.924 520.5,187C 518.5,187.667 516.5,187.667 514.5,187C 510.988,184.966 507.655,182.799 504.5,180.5C 496.612,181.946 489.278,184.779 482.5,189C 484.911,190.583 487.578,191.583 490.5,192C 495.167,192.333 499.833,192.667 504.5,193C 507.932,195.367 508.265,198.034 505.5,201C 501.284,202.204 496.951,202.87 492.5,203C 496.79,207.965 500.29,213.465 503,219.5C 509.994,221.153 512.661,225.486 511,232.5C 505.789,239.939 500.122,240.273 494,233.5C 492.705,228.311 493.872,223.811 497.5,220C 492.241,206.198 482.575,198.365 468.5,196.5C 503.605,256.106 507.938,317.94 481.5,382C 482.853,390.139 484.02,398.306 485,406.5C 491.082,414.663 495.582,423.663 498.5,433.5C 507.066,437.643 508.733,443.643 503.5,451.5C 493.283,455.814 488.117,452.481 488,441.5C 489.643,439.023 491.476,436.69 493.5,434.5C 491.834,428.166 489.334,422.166 486,416.5C 485.776,424.543 485.109,432.543 484,440.5C 481.374,444.072 478.374,444.405 475,441.5C 474.907,437.159 474.907,432.826 475,428.5C 470.762,435.408 465.762,441.741 460,447.5C 462.573,456.692 459.24,462.359 450,464.5C 441.259,462.348 438.259,457.015 441,448.5C 445.224,443.743 450.39,442.243 456.5,444C 463.435,436.4 469.602,428.234 475,419.5C 475.907,412.27 475.24,405.27 473,398.5C 458.427,424.074 439.26,445.574 415.5,463C 409.162,470.671 403.829,479.005 399.5,488C 407.884,512.848 400.551,531.515 377.5,544C 376.216,544.684 375.049,544.517 374,543.5C 367.209,526.116 369.876,510.449 382,496.5C 386.333,492.833 390.667,489.167 395,485.5C 397.36,480.779 399.527,476.446 401.5,472.5C 364.517,494.245 324.517,504.079 281.5,502C 276.087,503.02 270.754,504.353 265.5,506C 262.719,509.897 261.052,514.23 260.5,519C 262.838,521.933 265.338,524.766 268,527.5C 270.167,540 265,545.167 252.5,543C 244.077,537.127 243.411,530.46 250.5,523C 252.025,521.991 253.692,521.491 255.5,521.5C 255.268,517.196 256.268,513.196 258.5,509.5C 258.167,509.167 257.833,508.833 257.5,508.5C 251.981,510.527 246.814,513.194 242,516.5C 240.372,522.971 238.872,529.471 237.5,536C 239.825,539.489 241.491,543.322 242.5,547.5C 239.947,557.61 233.947,560.443 224.5,556C 218.321,548.069 219.655,541.735 228.5,537C 229.793,536.51 231.127,536.343 232.5,536.5C 233.389,531.993 234.389,527.493 235.5,523C 235.167,522.5 234.833,522 234.5,521.5C 232.016,523.483 229.683,525.65 227.5,528C 222.749,530.725 219.749,529.391 218.5,524C 222.342,518.658 227.009,514.158 232.5,510.5C 224.106,509.905 215.773,508.905 207.5,507.5C 205.313,508.322 203.647,509.822 202.5,512C 196.653,515.699 191.486,514.865 187,509.5C 183.473,498.71 187.307,493.21 198.5,493C 203.201,494.528 205.868,497.695 206.5,502.5C 218.752,504.417 231.085,504.917 243.5,504C 248.167,502 252.833,500 257.5,498C 232.652,492.61 209.652,482.943 188.5,469C 176.833,468.333 165.167,468.333 153.5,469C 134.705,476.843 119.205,472.676 107,456.5C 103.033,451.538 103.867,447.705 109.5,445C 131.232,437.522 148.565,443.355 161.5,462.5C 167.472,463.664 173.472,463.83 179.5,463C 125.57,421.307 98.0704,366.14 97,297.5C 92.8644,290.895 89.531,283.895 87,276.5C 65.05,258.974 59.7167,237.307 71,211.5C 73.6324,208.808 75.9658,209.141 78,212.5C 86.5999,222.701 92.2665,234.367 95,247.5C 96.2386,256.505 95.0719,265.171 91.5,273.5C 93.1308,278.759 95.2974,283.759 98,288.5C 99.9759,254.573 109.976,223.24 128,194.5C 135.947,182.886 144.281,171.552 153,160.5C 157.523,151.62 161.357,142.454 164.5,133C 155.389,116.607 155.223,100.107 164,83.5C 167.754,77.6579 171.754,71.9913 176,66.5C 177.494,65.2528 178.994,65.2528 180.5,66.5C 185.157,74.8138 188.991,83.4805 192,92.5C 194.743,105.711 191.243,116.878 181.5,126C 177.244,129.045 173.077,132.212 169,135.5C 166.63,141.956 164.297,148.289 162,154.5C 186.142,131.837 214.309,116.004 246.5,107C 252.333,102.5 257.5,97.3333 262,91.5C 263.555,81.0103 262.055,71.0103 257.5,61.5C 244.307,62.8013 238.807,56.8013 241,43.5C 242.694,40.6424 244.861,38.309 247.5,36.5 Z M 283.5,111.5 C 235.816,116.426 194.983,135.759 161,169.5C 110.878,225.672 96.5445,290.005 118,362.5C 118.562,353.498 120.062,344.665 122.5,336C 119.606,321.847 120.272,307.847 124.5,294C 122.864,291.228 121.364,288.395 120,285.5C 119.032,270.476 125.865,264.976 140.5,269C 149.344,276.701 149.677,284.701 141.5,293C 137.496,294.341 133.662,295.841 130,297.5C 126.655,308.661 125.822,319.994 127.5,331.5C 129.582,331.472 131.416,332.139 133,333.5C 133.415,337.31 133.082,340.977 132,344.5C 137,339.5 142,334.5 147,329.5C 146.564,324.257 148.064,319.757 151.5,316C 161.224,311.574 167.224,314.574 169.5,325C 167.125,334.938 161.291,337.771 152,333.5C 143.93,340.9 136.596,348.9 130,357.5C 129.117,368.883 129.45,380.217 131,391.5C 150.657,426.824 178.491,453.658 214.5,472C 277.031,500.262 338.031,497.262 397.5,463C 459.999,421.508 489.832,363.008 487,287.5C 485.324,293.362 483.157,299.029 480.5,304.5C 484.19,337.793 470.19,359.793 438.5,370.5C 437.522,370.023 436.689,369.357 436,368.5C 435.049,337.376 448.215,314.709 475.5,300.5C 479.729,290.979 483.063,281.146 485.5,271C 481.535,248.573 474.035,227.406 463,207.5C 421.829,141.322 361.996,109.322 283.5,111.5 Z"/></g>
<g><path style="opacity:1" fill="#fcfdfc" d="M 177.5,72.5 C 183.112,80.9925 186.779,90.3259 188.5,100.5C 187.083,112.001 181.583,121.001 172,127.5C 174.036,116.585 175.702,105.585 177,94.5C 175.667,93.1667 174.333,93.1667 173,94.5C 171.294,104.708 168.96,114.708 166,124.5C 160.857,111.551 161.524,98.8846 168,86.5C 171.388,81.9523 174.555,77.2856 177.5,72.5 Z"/></g>
<g><path style="opacity:1" fill="#fcfefd" d="M 390.5,77.5 C 400.014,76.737 409.014,78.4037 417.5,82.5C 409.663,96.2401 397.996,104.24 382.5,106.5C 374.983,106.791 368.316,104.624 362.5,100C 368.906,97.7473 375.573,96.414 382.5,96C 383.833,94.6667 383.833,93.3333 382.5,92C 380.833,91.8333 379.167,91.6667 377.5,91.5C 372.103,92.3553 366.77,93.1886 361.5,94C 369.791,85.8606 379.458,80.3606 390.5,77.5 Z"/></g>
<g><path style="opacity:1" fill="#fbfdfc" d="M 73.5,217.5 C 75.371,217.859 76.871,218.859 78,220.5C 88.2656,233.562 91.9323,248.229 89,264.5C 87.1886,260.012 86.1886,255.346 86,250.5C 85.1207,247.654 83.4541,246.987 81,248.5C 81.4801,254.526 82.1468,260.526 83,266.5C 70.029,252.15 66.8624,235.816 73.5,217.5 Z"/></g>
<g><path style="opacity:1" fill="#fcfdfd" d="M 469.5,309.5 C 470.239,309.369 470.906,309.536 471.5,310C 467.485,316.01 463.485,322.01 459.5,328C 460.059,330.188 461.393,330.854 463.5,330C 468.286,324.265 472.452,318.099 476,311.5C 476.702,336.774 465.369,354.108 442,363.5C 441.908,340.683 451.075,322.683 469.5,309.5 Z"/></g>
<g><path style="opacity:1" fill="#fbfdfc" d="M 120.5,445.5 C 134.631,445.399 145.964,450.899 154.5,462C 145.541,460.851 136.874,458.351 128.5,454.5C 125.025,455.286 124.692,456.786 127.5,459C 133.537,462.123 139.87,464.457 146.5,466C 130.417,470.122 118.084,465.122 109.5,451C 113.017,448.674 116.683,446.84 120.5,445.5 Z"/></g>
<g><path style="opacity:1" fill="#fafdfb" d="M 389.5,495.5 C 390.239,495.369 390.906,495.536 391.5,496C 387.6,503.025 385.767,510.525 386,518.5C 387.011,519.337 388.178,519.67 389.5,519.5C 391.026,511.257 393.359,503.257 396.5,495.5C 400.811,513.896 394.811,527.896 378.5,537.5C 376.073,533.735 375.073,529.568 375.5,525C 375.279,520.299 376.113,515.799 378,511.5C 381.277,505.73 385.11,500.397 389.5,495.5 Z"/></g>
</svg>
